HIERARCHY
ROOT Hips
{
  OFFSET 26.951 18.967 -268.395
  CHANNELS 6 Xposition Yposition Zposition Zrotation Xrotation Yrotation
  JOINT LeftUpLeg
  {
    OFFSET 4.869 -3.985 2.755
    CHANNELS 6 Xposition Yposition Zposition Zrotation Xrotation Yrotation
    JOINT LeftLeg
    {
      OFFSET 0.000 -47.769 0.000
      CHANNELS 6 Xposition Yposition Zposition Zrotation Xrotation Yrotation
      JOINT LeftFoot
      {
        OFFSET -0.000 -35.050 -0.000
        CHANNELS 6 Xposition Yposition Zposition Zrotation Xrotation Yrotation
        End Site
        {
          OFFSET 0.000 -8.038 4.641
        }
      }
    }
  }
  JOINT RightUpLeg
  {
    OFFSET -4.526 -4.270 3.454
    CHANNELS 6 Xposition Yposition Zposition Zrotation Xrotation Yrotation
    JOINT RightLeg
    {
      OFFSET -0.000 -41.022 0.000
      CHANNELS 6 Xposition Yposition Zposition Zrotation Xrotation Yrotation
      JOINT RightFoot
      {
        OFFSET -0.000 -32.535 -0.000
        CHANNELS 6 Xposition Yposition Zposition Zrotation Xrotation Yrotation
        End Site
        {
          OFFSET 0.000 -7.534 4.350
        }
      }
    }
  }
  JOINT Spine
  {
    OFFSET 0.000 5.380 -5.380
    CHANNELS 6 Xposition Yposition Zposition Zrotation Xrotation Yrotation
    JOINT LeftShoulder
    {
      OFFSET -0.000 36.436 0.000
      CHANNELS 6 Xposition Yposition Zposition Zrotation Xrotation Yrotation
      JOINT LeftArm
      {
        OFFSET 15.695 0.000 -0.000
        CHANNELS 6 Xposition Yposition Zposition Zrotation Xrotation Yrotation
        JOINT LeftForeArm
        {
          OFFSET 23.043 0.000 0.000
          CHANNELS 6 Xposition Yposition Zposition Zrotation Xrotation Yrotation
          JOINT LeftHand
          {
            OFFSET 21.022 -0.000 -0.000
            CHANNELS 6 Xposition Yposition Zposition Zrotation Xrotation Yrotation
            JOINT LeftHandThumb1
            {
            OFFSET 4.970 -0.620 3.390
            CHANNELS 6 Xposition Yposition Zposition Zrotation Xrotation Yrotation
              JOINT LeftHandThumb2
              {
              OFFSET 2.150 -0.000 0.000
              CHANNELS 6 Xposition Yposition Zposition Zrotation Xrotation Yrotation
                JOINT LeftHandThumb3
                {
                OFFSET 2.200 -0.000 0.000
                CHANNELS 6 Xposition Yposition Zposition Zrotation Xrotation Yrotation
                  JOINT LeftHandThumb4
                  {
                  OFFSET 1.700 -0.000 0.000
                  CHANNELS 6 Xposition Yposition Zposition Zrotation Xrotation Yrotation
                  }
                }
              }
            }
            JOINT LeftHandIndex1
            {
            OFFSET 8.730 0.680 2.070
            CHANNELS 6 Xposition Yposition Zposition Zrotation Xrotation Yrotation
              JOINT LeftHandIndex2
              {
              OFFSET 2.670 -0.000 0.000
              CHANNELS 6 Xposition Yposition Zposition Zrotation Xrotation Yrotation
                JOINT LeftHandIndex3
                {
                OFFSET 2.130 -0.000 0.000
                CHANNELS 6 Xposition Yposition Zposition Zrotation Xrotation Yrotation
                  JOINT LeftHandIndex4
                  {
                  OFFSET 1.800 -0.000 0.000
                  CHANNELS 6 Xposition Yposition Zposition Zrotation Xrotation Yrotation
                  }
                }
              }
            }
            JOINT LeftHandMiddle1
            {
            OFFSET 9.220 0.670 0.550
            CHANNELS 6 Xposition Yposition Zposition Zrotation Xrotation Yrotation
              JOINT LeftHandMiddle2
              {
              OFFSET 2.660 -0.000 0.000
              CHANNELS 6 Xposition Yposition Zposition Zrotation Xrotation Yrotation
                JOINT LeftHandMiddle3
                {
                OFFSET 2.280 -0.000 0.000
                CHANNELS 6 Xposition Yposition Zposition Zrotation Xrotation Yrotation
                  JOINT LeftHandMiddle4
                  {
                  OFFSET 1.500 -0.000 0.000
                  CHANNELS 6 Xposition Yposition Zposition Zrotation Xrotation Yrotation
                  }
                }
              }
            }
            JOINT LeftHandRing1
            {
            OFFSET 9.250 0.670 -1.130
            CHANNELS 6 Xposition Yposition Zposition Zrotation Xrotation Yrotation
              JOINT LeftHandRing2
              {
              OFFSET 2.470 -0.000 0.000
              CHANNELS 6 Xposition Yposition Zposition Zrotation Xrotation Yrotation
                JOINT LeftHandRing3
                {
                OFFSET 2.210 -0.000 0.000
                CHANNELS 6 Xposition Yposition Zposition Zrotation Xrotation Yrotation
                  JOINT LeftHandRing4
                  {
                  OFFSET 1.800 -0.000 0.000
                  CHANNELS 6 Xposition Yposition Zposition Zrotation Xrotation Yrotation
                  }
                }
              }
            }
            JOINT LeftHandPinky1
            {
            OFFSET 9.350 0.660 -2.720
            CHANNELS 6 Xposition Yposition Zposition Zrotation Xrotation Yrotation
              JOINT LeftHandPinky2
              {
              OFFSET 1.630 -0.000 0.000
              CHANNELS 6 Xposition Yposition Zposition Zrotation Xrotation Yrotation
                JOINT LeftHandPinky3
                {
                OFFSET 1.710 -0.000 0.000
                CHANNELS 6 Xposition Yposition Zposition Zrotation Xrotation Yrotation
                  JOINT LeftHandPinky4
                  {
                  OFFSET 1.800 -0.000 0.000
                  CHANNELS 6 Xposition Yposition Zposition Zrotation Xrotation Yrotation
                  }
                }
              }
            }
          }
        }
      }
    }
    JOINT RightShoulder
    {
      OFFSET -0.000 36.436 0.000
      CHANNELS 6 Xposition Yposition Zposition Zrotation Xrotation Yrotation
      JOINT RightArm
      {
        OFFSET -16.670 0.000 -0.000
        CHANNELS 6 Xposition Yposition Zposition Zrotation Xrotation Yrotation
        JOINT RightForeArm
        {
          OFFSET -25.367 0.000 0.000
          CHANNELS 6 Xposition Yposition Zposition Zrotation Xrotation Yrotation
          JOINT RightHand
          {
            OFFSET -21.945 0.000 -0.000
            CHANNELS 6 Xposition Yposition Zposition Zrotation Xrotation Yrotation
            JOINT RightHandThumb1
            {
            OFFSET -4.970 -0.620 3.390
            CHANNELS 6 Xposition Yposition Zposition Zrotation Xrotation Yrotation
              JOINT RightHandThumb2
              {
              OFFSET -2.150 0.000 0.000
              CHANNELS 6 Xposition Yposition Zposition Zrotation Xrotation Yrotation
                JOINT RightHandThumb3
                {
                OFFSET -2.200 0.000 0.000
                CHANNELS 6 Xposition Yposition Zposition Zrotation Xrotation Yrotation
                  JOINT RightHandThumb4
                  {
                  OFFSET -1.700 0.000 0.000
                  CHANNELS 6 Xposition Yposition Zposition Zrotation Xrotation Yrotation
                  }
                }
              }
            }
            JOINT RightHandIndex1
            {
            OFFSET -8.730 0.680 2.070
            CHANNELS 6 Xposition Yposition Zposition Zrotation Xrotation Yrotation
              JOINT RightHandIndex2
              {
              OFFSET -2.670 0.000 0.000
              CHANNELS 6 Xposition Yposition Zposition Zrotation Xrotation Yrotation
                JOINT RightHandIndex3
                {
                OFFSET -2.130 0.000 0.000
                CHANNELS 6 Xposition Yposition Zposition Zrotation Xrotation Yrotation
                  JOINT RightHandIndex4
                  {
                  OFFSET -1.800 0.000 0.000
                  CHANNELS 6 Xposition Yposition Zposition Zrotation Xrotation Yrotation
                  }
                }
              }
            }
            JOINT RightHandMiddle1
            {
            OFFSET -9.220 0.670 0.550
            CHANNELS 6 Xposition Yposition Zposition Zrotation Xrotation Yrotation
              JOINT RightHandMiddle2
              {
              OFFSET -2.660 0.000 0.000
              CHANNELS 6 Xposition Yposition Zposition Zrotation Xrotation Yrotation
                JOINT RightHandMiddle3
                {
                OFFSET -2.280 0.000 0.000
                CHANNELS 6 Xposition Yposition Zposition Zrotation Xrotation Yrotation
                  JOINT RightHandMiddle4
                  {
                  OFFSET -1.500 0.000 0.000
                  CHANNELS 6 Xposition Yposition Zposition Zrotation Xrotation Yrotation
                  }
                }
              }
            }
            JOINT RightHandRing1
            {
            OFFSET -9.250 0.670 -1.130
            CHANNELS 6 Xposition Yposition Zposition Zrotation Xrotation Yrotation
              JOINT RightHandRing2
              {
              OFFSET -2.470 0.000 0.000
              CHANNELS 6 Xposition Yposition Zposition Zrotation Xrotation Yrotation
                JOINT RightHandRing3
                {
                OFFSET -2.210 0.000 0.000
                CHANNELS 6 Xposition Yposition Zposition Zrotation Xrotation Yrotation
                  JOINT RightHandRing4
                  {
                  OFFSET -1.800 0.000 0.000
                  CHANNELS 6 Xposition Yposition Zposition Zrotation Xrotation Yrotation
                  }
                }
              }
            }
            JOINT RightHandPinky1
            {
            OFFSET -9.350 0.660 -2.720
            CHANNELS 6 Xposition Yposition Zposition Zrotation Xrotation Yrotation
              JOINT RightHandPinky2
              {
              OFFSET -1.630 0.000 0.000
              CHANNELS 6 Xposition Yposition Zposition Zrotation Xrotation Yrotation
                JOINT RightHandPinky3
                {
                OFFSET -1.710 0.000 0.000
                CHANNELS 6 Xposition Yposition Zposition Zrotation Xrotation Yrotation
                  JOINT RightHandPinky4
                  {
                  OFFSET -1.800 0.000 0.000
                  CHANNELS 6 Xposition Yposition Zposition Zrotation Xrotation Yrotation
                  }
                }
              }
            }
          }
        }
      }
    }
    JOINT Neck
    {
      OFFSET -0.000 36.436 0.000
      CHANNELS 6 Xposition Yposition Zposition Zrotation Xrotation Yrotation
      JOINT Head
      {
        OFFSET -0.000 17.470 -0.000
        CHANNELS 6 Xposition Yposition Zposition Zrotation Xrotation Yrotation
        End Site
        {
          OFFSET -0.000 0.070 -0.000
        }
      }
    }
  }
}
MOTION
Frames:	6
Frame Time:	0.0333333
25.1765 26.2423 -267.629 1.96332 38.3532 -15.7366 5.47085 -4.14975 4.6351 -7.79495 -42.1442 -20.2236 0 -50.8141 4.76837e-05 15.1238 14.1177 1.76073e-06 1.19209e-05 -35.3849 -4.76837e-05 0.528654 -17.9056 0.598922 -5.25864 -5.33209 2.63197 22.0527 -49.2211 5.01924 1.19209e-05 -42.2578 2.38419e-05 -111.917 3.77463 134.485 0 -32.0694 3.57628e-05 -167.865 -73.2166 159.801 0 4.66148 -4.66149 0.940513 -33.8279 0.936582 0 36.4363 2.38419e-05 -43.716 7.68396e-06 -23.212 17.0231 -1.3411e-05 -4.76837e-05 9.11945 47.3138 -53.2205 22.2211 1.19209e-05 -7.45058e-07 -2.00326e-07 -2.98314e-06 -97.6836 17.7279 -2.38419e-05 1.19209e-05 -90.9007 2.27459 -45.782 0.0062 0.0497 0.0339 0 0 0 0 0.0215 0 0 0 0 0 0.022 0 0 0 0 0 0.017 0 0 0 0 -0.0068 0.0873 0.0207 0 0 0 0 0.0267 0 0 0 0 0 0.0213 0 0 0 0 0 0.018 0 0 0 0 -0.0067 0.0922 0.0055 0 0 0 0 0.0266 0 0 0 0 0 0.0228 0 0 0 0 0 0.015 0 0 0 0 -0.0067 0.0925 -0.0113 0 0 0 0 0.0247 0 0 0 0 0 0.0221 0 0 0 0 0 0.018 0 0 0 0 -0.0066 0.0935 -0.0272 0 0 0 0 0.0163 0 0 0 0 0 0.0171 0 0 0 0 0 0.018 0 0 0 0 0 36.4363 2.38419e-05 42.6011 -5.97642e-06 21.8025 -18.0647 -5.96046e-06 -4.76837e-05 -110.951 -15.0419 139.816 -27.7056 -2.38419e-05 2.38419e-05 -5.69079e-06 1.48848e-05 131.846 -24.9129 -1.19209e-05 5.96046e-06 36.4935 -0.553929 10.9387 -0.0062 0.0497 0.0339 0 0 0 0 0.0215 0 0 0 0 0 0.022 0 0 0 0 0 0.017 0 0 0 0 0.0068 0.0873 0.0207 0 0 0 0 0.0267 0 0 0 0 0 0.0213 0 0 0 0 0 0.018 0 0 0 0 0.0067 0.0922 0.0055 0 0 0 0 0.0266 0 0 0 0 0 0.0228 0 0 0 0 0 0.015 0 0 0 0 0.0067 0.0925 -0.0113 0 0 0 0 0.0247 0 0 0 0 0 0.0221 0 0 0 0 0 0.018 0 0 0 0 0.0066 0.0935 -0.0272 0 0 0 0 0.0163 0 0 0 0 0 0.0171 0 0 0 0 0 0.018 0 0 0 0 0 36.4363 2.38419e-05 18.4187 1.4866 -0.494997 -1.19209e-05 13.6671 2.38419e-05 1.18461e-05 -1.00318e-05 -8.53773e-07 
25.1808 26.5351 -267.565 1.03918 39.4086 -13.6068 5.44373 -4.04614 4.8651 -8.49354 -42.2022 -21.7023 0 -50.9002 -2.38419e-05 15.6188 12.9551 0 -5.96046e-06 -35.646 4.76837e-05 0.702159 -17.827 0.712708 -5.21756 -5.4758 2.75092 21.5841 -50.3877 3.55864 0 -42.2662 -4.76837e-05 -115.677 1.20678 171.744 5.96046e-06 -33.125 -2.38419e-05 -5.96831 -15.5585 175.804 8.9407e-06 4.65226 -4.65226 0.980628 -34.6791 1.14229 0 36.4363 4.76837e-05 -44.9202 2.21981e-05 -24.0244 17.1967 1.04308e-05 -7.15256e-05 16.0161 48.4543 -58.8432 22.8625 1.19209e-05 -7.45058e-07 -2.69266e-05 5.31081e-06 -98.49 17.903 -1.19209e-05 4.76837e-05 -77.2108 6.11299 -54.001 0.0062 0.0497 0.0339 0 0 0 0 0.0215 0 0 0 0 0 0.022 0 0 0 0 0 0.017 0 0 0 0 -0.0068 0.0873 0.0207 0 0 0 0 0.0267 0 0 0 0 0 0.0213 0 0 0 0 0 0.018 0 0 0 0 -0.0067 0.0922 0.0055 0 0 0 0 0.0266 0 0 0 0 0 0.0228 0 0 0 0 0 0.015 0 0 0 0 -0.0067 0.0925 -0.0113 0 0 0 0 0.0247 0 0 0 0 0 0.0221 0 0 0 0 0 0.018 0 0 0 0 -0.0066 0.0935 -0.0272 0 0 0 0 0.0163 0 0 0 0 0 0.0171 0 0 0 0 0 0.018 0 0 0 0 0 36.4363 4.76837e-05 42.8812 2.13443e-07 21.4842 -19.1163 5.96046e-06 -7.15256e-05 -110.368 -13.9755 138.949 -27.5402 0 -5.96046e-05 -5.94015e-06 1.51587e-05 132.797 -24.4313 -2.38419e-05 -1.78814e-05 30.9102 -0.60237 8.48823 -0.0062 0.0497 0.0339 0 0 0 0 0.0215 0 0 0 0 0 0.022 0 0 0 0 0 0.017 0 0 0 0 0.0068 0.0873 0.0207 0 0 0 0 0.0267 0 0 0 0 0 0.0213 0 0 0 0 0 0.018 0 0 0 0 0.0067 0.0922 0.0055 0 0 0 0 0.0266 0 0 0 0 0 0.0228 0 0 0 0 0 0.015 0 0 0 0 0.0067 0.0925 -0.0113 0 0 0 0 0.0247 0 0 0 0 0 0.0221 0 0 0 0 0 0.018 0 0 0 0 0.0066 0.0935 -0.0272 0 0 0 0 0.0163 0 0 0 0 0 0.0171 0 0 0 0 0 0.018 0 0 0 0 0 36.4363 4.76837e-05 19.0042 0.757515 -0.260888 -1.04308e-05 13.6182 -9.53674e-05 1.62751e-05 -1.04587e-05 -8.53774e-07 
24.4762 26.0844 -267.751 3.49418 40.9735 -19.0782 5.30005 -3.97015 4.19517 -5.04806 -44.3715 -12.8968 1.78814e-05 -51.0812 2.38419e-05 15.1982 10.934 1.73912e-06 5.96046e-06 -35.5165 0 -0.755519 -17.3636 -0.404838 -4.87975 -4.82891 3.26688 27.7425 -49.7218 14.5101 -1.78814e-05 -41.9955 0 -124.634 -3.21955 -168.907 2.98023e-06 -34.4917 2.38419e-05 -143.999 7.37807 145.34 1.49012e-05 4.82221 -4.82223 1.91194 -36.6947 1.65188 0 36.4363 0 -41.934 1.02453e-05 -20.9947 16.6049 -3.05474e-05 0 20.5337 44.8083 -61.5483 24.4321 -2.38419e-05 -1.19209e-05 -1.31866e-05 4.57375e-06 -101.829 18.1889 1.19209e-05 0 -38.8382 0.693597 -55.3627 0.0062 0.0497 0.0339 0 0 0 0 0.0215 0 0 0 0 0 0.022 0 0 0 0 0 0.017 0 0 0 0 -0.0068 0.0873 0.0207 0 0 0 0 0.0267 0 0 0 0 0 0.0213 0 0 0 0 0 0.018 0 0 0 0 -0.0067 0.0922 0.0055 0 0 0 0 0.0266 0 0 0 0 0 0.0228 0 0 0 0 0 0.015 0 0 0 0 -0.0067 0.0925 -0.0113 0 0 0 0 0.0247 0 0 0 0 0 0.0221 0 0 0 0 0 0.018 0 0 0 0 -0.0066 0.0935 -0.0272 0 0 0 0 0.0163 0 0 0 0 0 0.0171 0 0 0 0 0 0.018 0 0 0 0 0 36.4363 0 41.1841 -8.53774e-07 19.2897 -18.0092 1.19209e-05 -4.76837e-05 -110.815 -18.8202 134.644 -26.9291 1.19209e-05 0 -6.1153e-06 1.53457e-05 133.455 -24.7042 0 -5.96046e-06 28.5599 -0.781555 1.36835 -0.0062 0.0497 0.0339 0 0 0 0 0.0215 0 0 0 0 0 0.022 0 0 0 0 0 0.017 0 0 0 0 0.0068 0.0873 0.0207 0 0 0 0 0.0267 0 0 0 0 0 0.0213 0 0 0 0 0 0.018 0 0 0 0 0.0067 0.0922 0.0055 0 0 0 0 0.0266 0 0 0 0 0 0.0228 0 0 0 0 0 0.015 0 0 0 0 0.0067 0.0925 -0.0113 0 0 0 0 0.0247 0 0 0 0 0 0.0221 0 0 0 0 0 0.018 0 0 0 0 0.0066 0.0935 -0.0272 0 0 0 0 0.0163 0 0 0 0 0 0.0171 0 0 0 0 0 0.018 0 0 0 0 0 36.4363 0 19.7315 2.20633 -0.7911 5.96046e-06 14.2001 7.15256e-05 1.14726e-05 -8.96462e-06 1.70755e-06 
24.4762 26.0844 -267.751 3.49418 40.9735 -19.0782 5.30005 -3.97015 4.19517 -5.04806 -44.3715 -12.8968 1.78814e-05 -51.0812 2.38419e-05 15.1982 10.934 1.73912e-06 5.96046e-06 -35.5165 0 -0.755519 -17.3636 -0.404838 -4.87975 -4.82891 3.26688 27.7425 -49.7218 14.5101 -1.78814e-05 -41.9955 0 -124.634 -3.21955 -168.907 2.98023e-06 -34.4917 2.38419e-05 -143.999 7.37807 145.34 1.49012e-05 4.82221 -4.82223 1.91194 -36.6947 1.65188 0 36.4363 0 -41.934 1.02453e-05 -20.9947 16.6049 -3.05474e-05 0 20.5337 44.8083 -61.5483 24.4321 -2.38419e-05 -1.19209e-05 -1.31866e-05 4.57375e-06 -101.829 18.1889 1.19209e-05 0 -38.8382 0.693597 -55.3627 0.0062 0.0497 0.0339 0 0 0 0 0.0215 0 0 0 0 0 0.022 0 0 0 0 0 0.017 0 0 0 0 -0.0068 0.0873 0.0207 0 0 0 0 0.0267 0 0 0 0 0 0.0213 0 0 0 0 0 0.018 0 0 0 0 -0.0067 0.0922 0.0055 0 0 0 0 0.0266 0 0 0 0 0 0.0228 0 0 0 0 0 0.015 0 0 0 0 -0.0067 0.0925 -0.0113 0 0 0 0 0.0247 0 0 0 0 0 0.0221 0 0 0 0 0 0.018 0 0 0 0 -0.0066 0.0935 -0.0272 0 0 0 0 0.0163 0 0 0 0 0 0.0171 0 0 0 0 0 0.018 0 0 0 0 0 36.4363 0 41.1841 -8.53774e-07 19.2897 -18.0092 1.19209e-05 -4.76837e-05 -110.815 -18.8202 134.644 -26.9291 1.19209e-05 0 -6.1153e-06 1.53457e-05 133.455 -24.7042 0 -5.96046e-06 28.5599 -0.781555 1.36835 -0.0062 0.0497 0.0339 0 0 0 0 0.0215 0 0 0 0 0 0.022 0 0 0 0 0 0.017 0 0 0 0 0.0068 0.0873 0.0207 0 0 0 0 0.0267 0 0 0 0 0 0.0213 0 0 0 0 0 0.018 0 0 0 0 0.0067 0.0922 0.0055 0 0 0 0 0.0266 0 0 0 0 0 0.0228 0 0 0 0 0 0.015 0 0 0 0 0.0067 0.0925 -0.0113 0 0 0 0 0.0247 0 0 0 0 0 0.0221 0 0 0 0 0 0.018 0 0 0 0 0.0066 0.0935 -0.0272 0 0 0 0 0.0163 0 0 0 0 0 0.0171 0 0 0 0 0 0.018 0 0 0 0 0 36.4363 0 19.7315 2.20633 -0.7911 5.96046e-06 14.2001 7.15256e-05 1.14726e-05 -8.96462e-06 1.70755e-06 
24.0085 25.5711 -267.944 3.46008 42.0414 -20.2199 5.15604 -3.78761 3.82519 -2.86123 -45.6408 -9.1856 5.96046e-06 -50.8619 -2.38419e-05 15.0526 10.5475 -3.47379e-06 0 -35.5823 -2.38419e-05 -1.94702 -16.3274 -1.30465 -4.62183 -4.50413 3.35944 31.5947 -49.4564 19.7571 -5.96046e-06 -41.7411 -2.38419e-05 -126.633 -3.0443 -170.186 1.19209e-05 -35.1337 0 -145.438 10.1909 145.953 -5.96046e-06 4.94673 -4.94671 2.66732 -37.7053 2.15485 -1.49012e-05 36.4363 4.76837e-05 -41.8607 1.36604e-05 -21.299 16.0707 -7.45058e-07 -7.15256e-05 21.8521 44.4454 -59.8621 24.8082 1.19209e-05 1.19209e-05 7.37731e-07 5.68999e-06 -104.775 18.4649 -4.76837e-05 -2.38419e-05 -26.2919 -1.23469 -49.0943 0.0062 0.0497 0.0339 0 0 0 0 0.0215 0 0 0 0 0 0.022 0 0 0 0 0 0.017 0 0 0 0 -0.0068 0.0873 0.0207 0 0 0 0 0.0267 0 0 0 0 0 0.0213 0 0 0 0 0 0.018 0 0 0 0 -0.0067 0.0922 0.0055 0 0 0 0 0.0266 0 0 0 0 0 0.0228 0 0 0 0 0 0.015 0 0 0 0 -0.0067 0.0925 -0.0113 0 0 0 0 0.0247 0 0 0 0 0 0.0221 0 0 0 0 0 0.018 0 0 0 0 -0.0066 0.0935 -0.0272 0 0 0 0 0.0163 0 0 0 0 0 0.0171 0 0 0 0 0 0.018 0 0 0 0 -1.49012e-05 36.4363 4.76837e-05 40.4673 -9.39151e-06 19.2961 -17.6651 -3.57628e-05 0 -111.599 -18.4174 133.56 -26.3092 0 0 -2.3426e-06 5.91995e-06 133.179 -24.7909 2.38419e-05 -5.96046e-06 28.7535 -0.914533 -2.80064 -0.0062 0.0497 0.0339 0 0 0 0 0.0215 0 0 0 0 0 0.022 0 0 0 0 0 0.017 0 0 0 0 0.0068 0.0873 0.0207 0 0 0 0 0.0267 0 0 0 0 0 0.0213 0 0 0 0 0 0.018 0 0 0 0 0.0067 0.0922 0.0055 0 0 0 0 0.0266 0 0 0 0 0 0.0228 0 0 0 0 0 0.015 0 0 0 0 0.0067 0.0925 -0.0113 0 0 0 0 0.0247 0 0 0 0 0 0.0221 0 0 0 0 0 0.018 0 0 0 0 0.0066 0.0935 -0.0272 0 0 0 0 0.0163 0 0 0 0 0 0.0171 0 0 0 0 0 0.018 0 0 0 0 -1.49012e-05 36.4363 4.76837e-05 20.0205 2.56526 -0.934321 0 14.6639 4.76837e-05 1.23264e-05 -1.00318e-05 0 
23.6144 24.9303 -267.966 4.88128 42.475 -22.4662 5.06892 -3.33407 3.69928 -1.88916 -46.3009 -8.62611 1.19209e-05 -49.5504 7.15256e-05 13.5927 10.9288 1.73909e-06 5.96046e-06 -36.773 2.38419e-05 -2.88062 -17.1866 -2.18491 -4.51269 -4.27103 3.37813 34.3156 -49.1158 -5.18573 1.19209e-05 -41.1425 -2.38419e-05 -133.03 -26.3257 180 0 -35.6951 -7.15256e-05 -148.667 16.847 147.996 0 5.04358 -5.04363 2.28567 -38.8355 1.85767 5.96046e-06 36.4363 7.15256e-05 -42.0969 1.02453e-05 -21.4877 15.2964 6.89179e-06 -7.15256e-05 24.7557 45.7312 -57.3465 25.1356 2.38419e-05 1.2666e-05 1.28295e-05 -6.03224e-06 -105.686 18.5636 -2.38419e-05 2.38419e-05 -10.2574 -2.20764 -41.271 0.0062 0.0497 0.0339 0 0 0 0 0.0215 0 0 0 0 0 0.022 0 0 0 0 0 0.017 0 0 0 0 -0.0068 0.0873 0.0207 0 0 0 0 0.0267 0 0 0 0 0 0.0213 0 0 0 0 0 0.018 0 0 0 0 -0.0067 0.0922 0.0055 0 0 0 0 0.0266 0 0 0 0 0 0.0228 0 0 0 0 0 0.015 0 0 0 0 -0.0067 0.0925 -0.0113 0 0 0 0 0.0247 0 0 0 0 0 0.0221 0 0 0 0 0 0.018 0 0 0 0 -0.0066 0.0935 -0.0272 0 0 0 0 0.0163 0 0 0 0 0 0.0171 0 0 0 0 0 0.018 0 0 0 0 5.96046e-06 36.4363 7.15256e-05 39.4597 -7.68396e-06 18.8725 -17.3221 2.98023e-05 -2.38419e-05 -112.153 -20.5557 132.365 -26.6035 1.19209e-05 5.96046e-06 7.25989e-06 1.56412e-05 134.509 -25.4059 -1.19209e-05 1.19209e-05 28.921 -1.16264 -11.5229 -0.0062 0.0497 0.0339 0 0 0 0 0.0215 0 0 0 0 0 0.022 0 0 0 0 0 0.017 0 0 0 0 0.0068 0.0873 0.0207 0 0 0 0 0.0267 0 0 0 0 0 0.0213 0 0 0 0 0 0.018 0 0 0 0 0.0067 0.0922 0.0055 0 0 0 0 0.0266 0 0 0 0 0 0.0228 0 0 0 0 0 0.015 0 0 0 0 0.0067 0.0925 -0.0113 0 0 0 0 0.0247 0 0 0 0 0 0.0221 0 0 0 0 0 0.018 0 0 0 0 0.0066 0.0935 -0.0272 0 0 0 0 0.0163 0 0 0 0 0 0.0171 0 0 0 0 0 0.018 0 0 0 0 5.96046e-06 36.4363 7.15256e-05 20.7286 3.96335 -1.49835 0 15.3209 2.38419e-05 1.18461e-05 -9.17807e-06 0 
